<?xml version="1.0" standalone="no"?>
<!DOCTYPE svg PUBLIC "-//W3C//DTD SVG 20010904//EN"
 "http://www.w3.org/TR/2001/REC-SVG-20010904/DTD/svg10.dtd">
<svg version="1.0" xmlns="http://www.w3.org/2000/svg"
 width="161.000000pt" height="161.000000pt" viewBox="0 0 161.000000 161.000000"
 preserveAspectRatio="xMidYMid meet">
<metadata>
Created by potrace 1.14, written by Peter Selinger 2001-2017
</metadata>
<g transform="translate(0.000000,161.000000) scale(0.100000,-0.100000)"
fill="#000000" stroke="none">
<path d="M857 1582 c-13 -14 -36 -21 -82 -24 -71 -6 -128 -33 -133 -64 -2 -10
-20 -56 -40 -101 -26 -60 -41 -83 -54 -83 -23 0 -43 -42 -33 -67 5 -10 9 -79
9 -153 1 -127 3 -138 30 -193 15 -32 26 -60 25 -61 -2 -2 -38 -26 -79 -53 -41
-28 -83 -60 -93 -71 -24 -26 -51 -18 -43 14 8 28 -2 54 -20 54 -9 0 -14 12
-14 35 0 28 -4 35 -20 35 -11 0 -29 5 -39 12 -25 15 -168 -29 -163 -51 2 -8
-8 -26 -21 -40 -36 -38 -58 -86 -46 -98 7 -7 6 -20 -5 -41 -19 -38 -20 -42 -3
-42 9 0 12 -11 9 -36 -4 -36 -4 -37 24 -31 16 3 41 3 56 0 22 -4 27 -11 31
-47 3 -28 -2 -50 -14 -72 -27 -44 -24 -58 14 -76 31 -15 35 -21 46 -88 15 -91
42 -145 84 -166 17 -9 42 -28 54 -43 l21 -26 31 23 c16 12 44 22 61 22 48 0
90 22 187 99 50 39 98 71 107 71 9 0 25 9 36 20 16 16 18 25 11 39 -8 15 -5
20 15 30 46 21 82 14 114 -23 63 -72 200 -102 332 -73 40 9 90 19 110 22 43 7
50 20 31 58 -11 23 -12 39 -4 78 6 28 11 72 11 100 0 43 4 53 33 79 l32 30
-36 33 c-20 17 -39 44 -43 59 -3 14 -8 32 -11 40 -8 20 58 52 90 44 l26 -7
-21 41 c-11 22 -23 40 -26 40 -2 0 -17 -8 -32 -17 -17 -10 -22 -11 -14 -3 19
22 16 54 -5 46 -14 -6 -14 -4 2 14 19 20 20 21 33 3 7 -10 17 -25 22 -33 5 -8
12 -11 16 -7 4 4 -3 18 -15 31 -15 16 -21 31 -17 44 7 21 -34 63 -81 85 -13 6
-23 16 -23 23 0 30 -172 28 -184 -2 -3 -8 -14 -14 -25 -14 -19 0 -19 -2 -5
-35 18 -43 18 -45 -2 -45 -16 0 -16 -22 0 -61 5 -11 -1 -21 -18 -33 -24 -15
-28 -15 -83 11 -32 15 -60 29 -62 30 -1 1 4 23 12 50 9 26 19 67 22 90 4 23
13 47 21 54 19 15 47 69 41 76 -3 2 -14 0 -25 -6 -12 -6 -23 -11 -25 -11 -13
0 -12 77 1 103 17 35 4 73 -29 85 -14 6 -29 29 -45 71 l-24 63 26 34 c24 32
46 124 30 124 -4 0 -16 -9 -28 -20 -27 -25 -33 -25 -44 1 -9 20 -10 20 -27 1z
m65 -232 c20 -61 31 -190 16 -205 -3 -3 -17 0 -31 6 -25 11 -25 12 -7 28 33
28 36 66 6 95 -30 31 -55 33 -89 6 -14 -11 -31 -20 -39 -21 -10 0 -10 -2 0 -6
6 -2 12 -13 12 -23 0 -10 9 -28 21 -41 l21 -24 -16 25 c-23 36 -20 67 9 86 28
18 72 12 82 -11 5 -14 -40 -85 -59 -93 -5 -2 -6 -7 -3 -12 3 -4 -6 -10 -20
-12 -14 -3 -25 -2 -25 1 0 4 -18 6 -39 4 -21 -1 -52 2 -68 7 -15 4 -21 9 -12
9 22 1 46 31 51 61 5 37 -36 73 -78 68 -29 -3 -31 -2 -21 12 20 26 31 30 56
24 21 -4 23 -3 12 10 -11 13 -10 17 10 24 13 5 40 12 59 16 19 3 53 17 75 29
46 27 46 27 77 -63z m68 -103 c0 -40 -17 -24 -26 23 -7 32 -6 34 9 21 9 -7 17
-27 17 -44z m-286 27 c14 -14 13 -19 -11 -55 -29 -44 -54 -50 -77 -17 -21 30
-20 44 4 68 24 24 63 26 84 4z m117 -215 c21 -7 36 -15 34 -20 -3 -4 -1 -10 5
-14 18 -11 11 -24 -22 -41 -68 -35 -205 6 -168 50 7 9 9 17 4 17 -10 2 60 15
90 18 10 0 36 -4 57 -10z m462 -58 c-4 -15 -13 -19 -39 -18 -19 1 -34 7 -34
14 0 6 -10 14 -22 16 -13 2 5 5 39 6 56 1 61 -1 56 -18z m-85 -56 c3 -44 1
-48 -10 -32 -8 10 -19 17 -26 15 -7 -2 -19 11 -27 29 -13 30 -12 32 8 36 46 9
52 4 55 -48z m175 20 c26 -20 47 -39 47 -43 0 -5 -16 -24 -36 -43 -35 -33 -35
-34 -33 -9 5 52 -2 69 -30 86 -17 10 -27 23 -24 31 8 20 24 16 76 -22z m-66
-15 l33 -19 -28 -45 c-15 -25 -29 -46 -32 -46 -3 0 -4 18 -2 40 4 35 2 40 -17
40 -12 0 -24 -7 -28 -16 -8 -22 -23 2 -23 39 0 24 4 27 33 27 17 0 47 -9 64
-20z m-124 -60 c3 -11 1 -20 -4 -20 -5 0 -9 9 -9 20 0 11 2 20 4 20 2 0 6 -9
9 -20z m79 -25 c-6 -20 -11 -25 -16 -17 -11 18 2 68 14 56 5 -5 6 -23 2 -39z
m78 23 c0 -19 -18 -43 -25 -36 -4 3 -2 16 5 27 12 24 20 27 20 9z m-1120 -57
c0 -24 -45 -37 -64 -19 -12 11 -9 15 18 25 43 16 46 16 46 -6z m96 -13 c-3
-13 -6 -27 -6 -33 0 -5 -14 -10 -30 -11 -18 -1 -30 4 -30 12 0 7 -3 19 -6 27
-5 15 11 22 60 26 14 1 17 -4 12 -21z m1074 7 c-7 -9 -15 -13 -17 -11 -7 7 7
26 19 26 6 0 6 -6 -2 -15z m64 -31 c9 -24 8 -26 -16 -18 -32 9 -35 14 -18 24
21 13 27 12 34 -6z m-1304 -10 c0 -3 -11 -19 -25 -35 l-24 -30 19 -35 20 -34
-30 15 c-16 8 -36 15 -45 15 -19 0 -19 4 0 40 20 40 85 88 85 64z m80 -13 c0
-11 3 -26 6 -34 4 -12 0 -14 -15 -10 -26 7 -37 -18 -21 -48 10 -18 4 -15 -28
12 -45 37 -43 46 13 81 38 23 45 23 45 -1z m70 -32 c0 -10 -4 -19 -10 -19 -5
0 -10 12 -10 26 0 14 4 23 10 19 6 -3 10 -15 10 -26z m950 -16 c0 -5 -4 -14
-9 -22 -7 -10 -2 -24 15 -44 34 -41 30 -64 -5 -25 l-28 32 -32 -55 c-37 -64
-37 -64 -11 -96 26 -33 18 -42 -12 -13 -19 18 -24 19 -26 6 -2 -9 -8 -16 -13
-16 -6 0 -7 9 -4 21 5 14 0 28 -14 43 -34 36 -37 78 -8 112 22 25 32 29 71 27
37 -1 46 2 51 18 6 18 25 27 25 12z m-1012 -37 c3 -12 -1 -17 -10 -14 -7 3
-15 13 -16 22 -3 12 1 17 10 14 7 -3 15 -13 16 -22z m-155 -32 c9 -3 12 -14 9
-30 -3 -17 -11 -24 -28 -24 -28 0 -28 1 -12 35 13 28 11 27 31 19z m656 -32
c5 -10 6 -24 1 -32 -5 -8 -3 -21 3 -32 29 -46 -59 -81 -98 -38 -16 17 -16 20
-2 20 10 0 17 11 19 32 3 32 28 53 28 23 0 -9 5 -13 10 -10 6 3 10 13 10 21 0
24 -54 14 -58 -11 -6 -29 -20 -41 -33 -28 -15 15 -3 48 24 61 36 17 85 14 96
-6z m-608 -3 c22 -11 17 -31 -6 -23 -13 5 -30 34 -19 34 3 0 14 -5 25 -11z
m670 -21 c12 -13 17 -29 13 -41 -4 -14 -2 -18 7 -15 8 3 16 13 18 24 4 24 30
54 47 54 20 0 25 -16 15 -42 -8 -20 -10 -20 -10 -3 -1 15 -4 16 -13 7 -9 -9
-9 -15 0 -24 19 -19 14 -30 -10 -27 -13 2 -33 -3 -46 -9 -28 -16 -38 -10 -45
25 -3 16 -8 38 -12 51 -10 29 11 29 36 0z m621 5 c28 -25 22 -35 -40 -74 -80
-52 -128 -75 -197 -94 -33 -10 -68 -24 -77 -32 -9 -9 -38 -18 -62 -20 -43 -5
-46 -4 -56 22 -6 16 -9 34 -6 42 3 7 1 13 -4 13 -6 0 -10 5 -10 10 0 6 20 10
45 10 l45 0 -6 39 c-4 24 -2 41 5 45 7 4 11 0 11 -12 0 -10 11 -29 25 -42 14
-13 25 -32 25 -42 0 -24 32 -17 114 23 97 47 156 89 156 110 0 23 8 24 32 2z
m-1088 -29 c5 -12 14 -15 39 -10 17 3 39 1 47 -4 11 -7 6 -10 -22 -10 -20 0
-39 -4 -42 -8 -3 -5 10 -35 28 -67 32 -58 34 -60 72 -57 29 2 35 0 24 -7 -8
-6 -23 -11 -33 -11 -14 0 -16 -4 -7 -19 16 -32 11 -38 -10 -12 -15 17 -27 22
-48 18 -40 -8 -90 17 -98 47 -8 34 2 72 25 95 12 12 16 23 10 32 -11 18 -11
29 0 29 5 0 12 -7 15 -16z m-244 -20 c0 -8 -2 -14 -4 -14 -2 0 -11 -3 -20 -6
-11 -4 -16 0 -16 13 0 11 3 22 6 26 10 9 34 -4 34 -19z m677 -6 c-3 -8 -6 -5
-6 6 -1 11 2 17 5 13 3 -3 4 -12 1 -19z m-242 -117 c3 -10 4 -25 3 -32 -6 -28
40 -19 86 15 51 40 61 29 19 -18 l-28 -31 28 24 c31 28 38 11 10 -23 -17 -20
-17 -20 0 -7 28 22 20 -1 -13 -36 -38 -40 -65 -48 -118 -33 -23 6 -52 8 -66 4
-28 -7 -158 11 -233 32 -42 12 -53 19 -53 35 0 15 5 19 15 15 34 -13 133 -35
186 -41 75 -8 109 1 109 30 0 12 7 28 15 35 8 7 15 21 15 31 0 25 17 24 25 0z
m695 -20 c0 -11 -10 -32 -23 -47 -20 -23 -32 -27 -76 -28 -45 -1 -55 -5 -67
-26 l-15 -25 6 28 c3 16 1 35 -5 42 -8 10 -5 13 15 13 14 0 25 -4 25 -9 0 -15
74 -10 98 7 12 8 22 26 22 40 0 13 5 24 10 24 6 0 10 -9 10 -19z m-677 -150
c11 7 17 7 17 -1 0 -6 -7 -13 -15 -16 -13 -5 -13 -9 0 -34 22 -42 18 -49 -8
-17 -22 28 -22 28 -61 12 -21 -9 -41 -14 -44 -10 -3 3 13 13 36 21 35 14 40
20 32 35 -15 27 -12 34 8 16 12 -11 22 -13 35 -6z"/>
<path d="M825 1340 c-4 -6 7 -10 25 -10 18 0 29 4 25 10 -3 6 -15 10 -25 10
-10 0 -22 -4 -25 -10z"/>
<path d="M1122 664 c-13 -9 -22 -26 -22 -42 0 -28 24 -72 39 -72 10 0 61 117
53 124 -10 11 -48 6 -70 -10z"/>
<path d="M687 545 c-8 -18 11 -31 25 -17 11 11 3 32 -12 32 -4 0 -10 -7 -13
-15z"/>
<path d="M311 504 c-26 -33 -27 -58 -1 -84 20 -20 74 -28 84 -12 2 4 -10 34
-29 65 l-32 58 -22 -27z"/>
</g>
</svg>
